<svg xmlns="http://www.w3.org/2000/svg" xmlns:xlink="http://www.w3.org/1999/xlink" version="1.1" id="Capa_1" x="0px" y="0px" viewBox="0 0 799.999 800" style="" xml:space="preserve">
<g fill="#db2777">
	<g>
		<g>
			<g>
				<path d="M554.306,289.468l21.286,4.48c1.23,0.259,2.489,0.59,3.741,0.986l7.493,2.366l2.805-1.469l16.995,10      c1.009,0.594,1.944,1.116,2.849,1.622c0.703,0.393,1.407,0.785,2.11,1.199l6.288,3.698l0.698-0.146l17.131,14.843      c0.791,0.685,1.644,1.522,2.607,2.561l5.144,5.539l3.627,0.222l10.13,17.216c0.438,1.577,1.098,3.227,2.042,4.926l3.676,6.607      l2.501,0.779l4.367,15.772c0.456,1.645,0.933,3.458,1.396,5.212l1.857,7.052l1.819,1.182l1.261,25.111      c0.066,1.31,0.066,2.429,0,3.74l-0.403,8.039l1.089,1.157l-4.48,21.279c-0.26,1.231-0.591,2.489-0.985,3.737l-2.371,7.504      l1.196,2.28l-9.955,17.919c-0.231,0.416-0.457,0.828-0.68,1.232c-0.628,1.141-1.17,2.127-1.645,2.887l-4.026,6.443l0.412,1.969      l-14.619,15.76c-0.932,1.006-1.965,2.039-2.988,2.99l-5.643,5.242l-0.127,2.658l-17.58,10.355      c-0.583,0.344-1.156,0.688-1.729,1.031c-0.982,0.59-1.91,1.146-2.813,1.648l-6.573,3.65l-0.843,2.668l-19.195,5.039      c-1.852,0.484-3.704,0.973-5.556,1.461l-7.152,1.885l-0.691,1.086l-21.713,1.092c-1.469,0.074-2.889,0.074-4.686,0.074h-7.209      l-0.743,0.662l-21.584-4.533c-1.356-0.285-2.903-0.691-4.54-1.123l-0.074-0.019l-6.886-1.813l-0.793,0.396l-19.861-9.935      c-0.986-0.494-2.065-1.111-3.396-1.943l-6.314-3.945l-2.028,0.395l-15.832-14.684c-1.004-0.932-2.037-1.965-2.988-2.988      l-5.183-5.578l-2.029-0.113l-11.302-18.084c-0.813-1.301-1.679-2.768-2.645-4.412l-3.64-6.195l-2.419-0.783l-5.074-19.337      l-1.089-4.14l-0.372-1.412l-1.866-7.09l-1.045-0.674l-1.155-21.846c-0.071-1.346-0.071-3.019-0.071-4.637v-7.209l-0.744-0.833      l4.655-20.939c0.027-0.113,0.06-0.246,0.099-0.399c0.306-1.229,0.876-3.515,1.368-6.474l1.01-6.06l-0.24-0.478l10.017-18.908      c0.686-1.296,1.56-2.783,2.406-4.22l3.655-6.214l-0.143-0.72l14.888-17.185c0.447-0.517,1.129-1.186,1.918-1.962      c0.381-0.374,0.764-0.75,1.146-1.132l5.16-5.162l0.076-1.595l18.036-11.272c1.359-0.85,2.918-1.767,4.424-2.653l6.035-3.551      l0.403-1.181l20.759-6.554c1.426-0.45,2.993-0.862,4.652-1.298l7.198-1.892l0.651-1.031l21.762-1.146      c0.59-0.031,1.203-0.047,1.824-0.047s1.234,0.016,1.823,0.047l8.062,0.424L554.306,289.468 M544.314,268.079      c-11.852,0.097-23.607,1.457-34.975,4.177l-2.331,3.692c-1.847,0.485-3.691,0.971-5.538,1.554l2.817-3.983      c-11.271,3.109-22.247,7.48-32.546,13.018l-1.36,3.983c-1.652,0.972-3.302,1.943-4.856,2.915l1.65-4.372      c-10.103,5.829-19.526,12.921-28.076,20.985l-0.195,4.081c-1.359,1.36-2.719,2.623-3.981,4.08l0.388-4.469      c-8.161,8.161-15.351,17.391-21.568,27.494l0.777,3.886c-0.972,1.652-1.942,3.304-2.817,4.956l-0.68-4.275      c-3.108,5.344-5.83,10.978-8.257,16.807c-2.138,5.052-3.985,10.201-5.442,15.35l1.652,3.304      c-0.485,2.915-1.068,4.955-1.263,5.829c-0.875-1.068-1.359-1.943-1.943-2.526c-3.011,11.464-4.565,21.47-4.858,32.935l2.43,2.72      c0,1.845,0,3.79,0.098,5.635l-2.623-3.108c0.096,11.755,1.554,23.316,4.274,34.586l3.011,1.942      c0.486,1.848,0.973,3.692,1.457,5.538l-3.204-2.331c3.107,11.27,7.479,22.053,13.018,32.352l3.304,1.068      c0.971,1.652,1.942,3.301,2.914,4.855l-3.595-1.359c5.829,10.008,12.824,19.334,20.791,27.785l3.497,0.195      c1.263,1.359,2.622,2.721,3.982,3.982l-3.788-0.289c8.16,8.063,17.292,15.252,27.299,21.373l3.497-0.682      c1.555,0.973,3.207,1.943,4.956,2.818l-3.886,0.582c5.439,3.109,11.171,5.928,17.001,8.354      c4.954,2.043,9.909,3.889,14.961,5.346l3.109-1.555c1.845,0.484,3.691,0.973,5.537,1.359l-3.595,1.652      c11.367,3.012,22.929,4.662,34.295,5.053l2.72-2.43c1.943,0,3.692,0,5.635-0.098l-3.107,2.623      c11.656-0.096,23.218-1.455,34.488-4.08l2.04-3.205c1.846-0.486,3.692-0.973,5.538-1.457l-2.43,3.301      c11.173-3.01,22.053-7.285,32.255-12.727l1.166-3.691c1.749-0.971,3.304-1.941,4.955-2.914l-1.554,4.08      c10.006-5.828,19.43-12.727,27.979-20.693l0.195-4.08c1.359-1.264,2.72-2.623,3.982-3.982l-0.387,4.469      c8.063-8.162,15.349-17.293,21.663-27.299l-0.874-4.178c0.972-1.555,1.847-3.207,2.818-4.957l0.776,4.664      c3.206-5.635,6.219-11.658,8.743-17.777c1.943-4.664,3.692-9.426,5.149-14.185l-2.04-3.887c0.583-1.845,1.069-3.691,1.458-5.537      l2.039,4.372c3.11-11.366,4.762-22.928,5.248-34.489l-3.11-3.303c0.098-1.943,0.098-3.692,0-5.635l3.206,3.787      c0-11.754-2.233-27.104-4.857-38.471l-3.886-2.526c-0.486-1.846-0.973-3.692-1.457-5.441l4.079,2.915      c-3.012-11.27-6.412-18.459-11.948-28.854l-4.372-1.361c-0.973-1.749,0.291-0.971-0.681-2.623l2.526-0.583      c-5.732-10.006-12.727-19.527-20.693-28.077l-4.761-0.292c-1.263-1.36-2.622-2.72-4.08-3.983l5.148,0.486      c-8.16-8.161-17.293-15.544-27.396-21.859l-4.663,0.972c-1.652-0.972-3.304-1.846-4.955-2.818l5.15-0.194      c-5.636-3.207-12.242-7.092-17.683-9.327c-5.538-2.331-9.716-3.789-14.572-5.247l-4.081,2.138      c-1.847-0.583-3.691-1.069-5.538-1.457l4.566-2.137c-11.464-3.108-23.123-4.76-34.683-5.149l-3.304,3.109      c-0.923-0.048-1.87-0.073-2.817-0.073c-0.947,0-1.895,0.024-2.817,0.073L544.314,268.079L544.314,268.079z"/>
			</g>
		</g>
		<path d="M642.362,323.919c-26.135-26.139-60.89-40.534-97.853-40.534c-36.962,0-71.718,14.395-97.854,40.534    c-26.135,26.138-40.534,60.891-40.534,97.854c0,36.964,14.397,71.714,40.534,97.853c26.136,26.137,60.892,40.533,97.854,40.533    c36.964,0,71.719-14.397,97.853-40.533c26.139-26.139,40.533-60.889,40.533-97.853C682.895,384.81,668.5,350.055,642.362,323.919z     M555.871,434.034l-2.563,1.887l-2.829,1.471l-3.247,0.837l-3.354,0.254l-3.156-0.479l-3.032-0.966l-2.893-1.702l-2.555-2.194    l-1.883-2.563l-1.471-2.833l-0.836-3.236l-0.256-3.371l0.477-3.142l0.966-3.043l1.699-2.885l2.203-2.561l2.552-1.881l2.837-1.471    l3.251-0.838l3.354-0.255l3.162,0.482l3.021,0.956l2.896,1.709l2.548,2.194l1.893,2.565l1.466,2.826l0.838,3.253l0.254,3.348    l-0.481,3.168l-0.957,3.023l-1.708,2.893L555.871,434.034z M566.635,418.119l0.69-2.178l2.725,1.608l-2.065,2.399L566.635,418.119    z M557.569,403.539l-1.049-2.022l3.06-0.789l0.24,3.158L557.569,403.539z M549.628,399.814l-1.539-1.32l2.219-1.636l1.271,2.449    L549.628,399.814z M540.853,399.645l-2.176-0.689l1.608-2.727l2.398,2.065L540.853,399.645z M532.596,402.628l-2.019,0.152    l0.413-2.725l2.626,0.834L532.596,402.628z M522.547,416.655l-1.318,1.534l-1.636-2.221l2.446-1.265L522.547,416.655z     M518.976,420.812l-2.965,3.441l-5.803-3.418l6.356-3.292L518.976,420.812z M521.029,423.597l1.352,1.829l-0.69,2.18l-2.726-1.61    L521.029,423.597z M531.447,440.006l1.051,2.021l-3.064,0.789l-0.237-3.157L531.447,440.006z M539.39,443.737l1.533,1.316    l-2.219,1.637l-1.268-2.45L539.39,443.737z M548.164,443.901l2.173,0.69l-1.607,2.725l-2.399-2.066L548.164,443.901z     M556.417,440.918l2.016-0.154l-0.411,2.725l-2.627-0.833L556.417,440.918z M566.466,426.891l1.323-1.533l1.628,2.222    l-2.445,1.265L566.466,426.891z M570.039,422.733l2.963-3.442l5.806,3.421l-6.357,3.295L570.039,422.733z M575.24,416.691    l5.373-6.251l16.926,2.563l-15.198,7.875L575.24,416.691z M572.283,414.951l-3.911-2.306l1.231-3.873l7.074,1.074L572.283,414.951    z M565.391,410.887l-1.738-1.027l-0.154-2.013l2.726,0.411L565.391,410.887z M563.241,404.4l-0.342-4.534l6.524-1.68l-2.161,6.822    L563.241,404.4z M562.642,396.454l-0.619-8.226l13.786-10.158l-5.179,16.322L562.642,396.454z M559.326,397.309l-4.395,1.134    l-1.874-3.611l5.764-4.243L559.326,397.309z M551.487,391.806l-4.022-7.763l9.631-16.339l1.424,18.917L551.487,391.806z     M548.735,393.829l-3.268,2.409l-3.447-2.961l3.421-5.807L548.735,393.829z M539.424,391.043l-6.25-5.378l2.563-16.928    l7.877,15.204L539.424,391.043z M537.687,393.996l-2.309,3.914l-3.872-1.232l1.073-7.077L537.687,393.996z M528.25,395.648    l-8.331-2.646l-4.741-18.365l14.379,12.37L528.25,395.648z M527.739,399.022l-0.608,4.015l-4.533,0.341l-1.682-6.523    L527.739,399.022z M526.614,406.461l-0.342,2.254l-2.022,1.049l-0.789-3.063L526.614,406.461z M521.176,411.352l-3.606,1.871    l-4.249-5.762l6.722-0.507L521.176,411.352z M514.542,414.793l-7.763,4.021l-16.337-9.631l18.914-1.424L514.542,414.793z     M503.246,420.646l-17.445,9.042l-62.799-9.516c0.023-1.991,0.095-3.969,0.219-5.934l61.332-4.616L503.246,420.646z     M506.676,422.667l7.101,4.186l-5.377,6.254l-16.925-2.562L506.676,422.667z M516.731,428.591l3.913,2.309l-1.227,3.874    l-7.078-1.075L516.731,428.591z M523.623,432.661l1.741,1.026l0.152,2.015l-2.725-0.414L523.623,432.661z M525.773,439.146    l0.341,4.533l-6.523,1.684l2.166-6.827L525.773,439.146z M526.371,447.093l0.62,8.226l-13.781,10.158l5.179-16.319    L526.371,447.093z M529.69,446.237l4.4-1.132l1.868,3.605l-5.761,4.248L529.69,446.237z M537.53,451.74l4.021,7.76l-9.633,16.34    l-1.423-18.916L537.53,451.74z M540.278,449.711l3.271-2.407l3.447,2.966l-3.422,5.804L540.278,449.711z M549.586,452.505    l6.258,5.376l-2.568,16.925l-7.877-15.202L549.586,452.505z M551.329,449.55l2.309-3.913l3.866,1.223l-1.07,7.083L551.329,449.55z     M560.76,447.898l8.333,2.643l4.747,18.367l-14.384-12.371L560.76,447.898z M561.277,444.522l0.607-4.014l4.533-0.34l1.684,6.522    L561.277,444.522z M562.4,437.086l0.343-2.252l2.021-1.052l0.796,3.063L562.4,437.086z M567.839,432.195l3.607-1.872l4.25,5.761    l-6.724,0.506L567.839,432.195z M574.472,428.752l7.763-4.022l16.339,9.633l-18.917,1.422L574.472,428.752z M585.768,422.9    l17.443-9.04l62.801,9.514c-0.021,1.992-0.094,3.973-0.216,5.935l-61.335,4.617L585.768,422.9z M608.307,411.222l51.852-26.867    c3.632,11.24,5.675,23.196,5.854,35.604L608.307,411.222z M602.634,410.364l-19.426-2.942l14.152-16.453l59.579-15.386    c0.748,1.827,1.456,3.673,2.121,5.541L602.634,410.364z M579.273,406.828l-8.638-1.31l2.644-8.331l18.363-4.742L579.273,406.828z     M574.481,393.396l5.943-18.73l51.137-37.682c1.381,1.416,2.727,2.869,4.04,4.355L595.49,387.97L574.481,393.396z M582.16,369.199    l17.666-55.664c10.818,5.538,20.685,12.654,29.321,21.038L582.16,369.199z M577.542,372.601l-15.817,11.658l-1.626-21.641    l31.253-53.011c1.829,0.764,3.635,1.572,5.416,2.422L577.542,372.601z M559.657,356.731l-4.212-55.992    c11.443,1.022,22.428,3.626,32.742,7.601L559.657,356.731z M556.655,361.817l-11.017,18.693l-9.039-17.444l9.51-62.8    c1.988,0.023,3.973,0.098,5.941,0.217L556.655,361.817z M533.958,357.972l-26.868-51.85c11.243-3.633,23.197-5.673,35.603-5.855    L533.958,357.972z M533.096,363.645l-2.94,19.427l-16.454-14.155l-15.382-59.578c1.825-0.75,3.674-1.458,5.542-2.123    L533.096,363.645z M509.225,365.068l-42.565-36.612c8.583-7.169,18.17-13.176,28.522-17.778L509.225,365.068z M510.704,370.788    l5.425,21.012l-18.73-5.945l-37.68-51.134c1.419-1.381,2.867-2.728,4.354-4.04L510.704,370.788z M517.121,395.651l2.063,7.991    l-8.224,0.616l-10.161-13.784L517.121,395.651z M506.994,404.551l-21.638,1.631l-53.014-31.253c0.764-1.83,1.57-3.634,2.422-5.419    l60.577,19.224L506.994,404.551z M479.468,406.625l-55.994,4.216c1.022-11.447,3.629-22.433,7.601-32.746L479.468,406.625z     M480.709,432.326l-51.852,26.865c-3.634-11.242-5.674-23.195-5.853-35.604L480.709,432.326z M486.381,433.182l19.426,2.944    l-14.152,16.451l-59.581,15.381c-0.749-1.827-1.455-3.675-2.122-5.54L486.381,433.182z M509.74,436.719l8.641,1.31l-2.643,8.329    l-18.366,4.746L509.74,436.719z M514.533,450.15l-5.941,18.729l-51.134,37.684c-1.381-1.42-2.729-2.869-4.041-4.352l40.106-46.633    L514.533,450.15z M506.856,474.346l-17.665,55.662c-10.816-5.537-20.688-12.652-29.323-21.039L506.856,474.346z M511.473,470.943    l15.815-11.655l1.627,21.637l-31.253,53.012c-1.828-0.762-3.635-1.572-5.418-2.422L511.473,470.943z M529.357,486.813l4.21,55.994    c-11.444-1.019-22.429-3.629-32.739-7.6L529.357,486.813z M532.359,481.725l11.018-18.69l9.04,17.446l-9.511,62.797    c-1.992-0.021-3.972-0.094-5.938-0.215L532.359,481.725z M555.06,485.572l26.868,51.852c-11.245,3.633-23.202,5.674-35.608,5.854    L555.06,485.572z M555.917,479.898l2.944-19.426l16.452,14.153l15.389,59.58c-1.828,0.748-3.677,1.457-5.548,2.121    L555.917,479.898z M579.789,478.475l42.567,36.615c-8.585,7.17-18.169,13.176-28.525,17.777L579.789,478.475z M578.314,472.758    l-5.428-21.012l18.729,5.943l37.683,51.135c-1.418,1.383-2.87,2.727-4.352,4.041L578.314,472.758z M571.895,447.893l-2.066-7.986    l8.228-0.615l10.154,13.78L571.895,447.893z M582.019,438.996l21.643-1.632l53.011,31.253c-0.762,1.83-1.57,3.637-2.422,5.416    l-60.576-19.225L582.019,438.996z M609.547,436.924l55.996-4.214c-1.022,11.448-3.631,22.433-7.601,32.744L609.547,436.924z     M655.608,372.449l-54.399,14.043l36.617-42.567C644.995,352.51,651.001,362.095,655.608,372.449z M457.307,337.132l34.627,46.985    l-55.661-17.665C441.811,355.637,448.927,345.771,457.307,337.132z M433.411,471.096l54.394-14.042l-36.616,42.567    C444.02,491.037,438.013,481.453,433.411,471.096z M631.706,506.41l-34.629-46.987l55.666,17.668    C647.206,487.912,640.09,497.779,631.706,506.41z"/>
		<path d="M544.508,417.207c2.521,0,4.566,2.045,4.566,4.567c0,2.522-2.045,4.565-4.566,4.565c-2.523,0-4.567-2.043-4.567-4.565    C539.941,419.251,541.986,417.207,544.508,417.207z"/>
	</g>
		<linearGradient id="SVGID_00000153675119294122603800000008337452136997657245_" gradientUnits="userSpaceOnUse" x1="449.9019" y1="363.6252" x2="-367.0857" y2="98.1699">
		<stop offset="1" style="stop-color: #db2777;"/>
	</linearGradient>
	<path style="fill:url(#SVGID_00000153675119294122603800000008337452136997657245_);" d="M477.691,240.351   c-9.894-16.804-26.126-28.691-42.831-38.111c-4.86-2.742-9.826-5.294-14.83-7.759c-3.985-1.963-12.112-3.966-15.062-7.18   c8.065,8.787,23.144,24.037,19.752,36.697c-31.957-29.371-78.973-34.075-118.805-24.063c-4.211,1.058-9.304,2.408-14.945,3.797   c-1.179-1.02-2.358-2.084-3.542-3.208c-17.71-16.848-31.182-37.272-61.115-43.656c-65.923-14.047-121.852,67.164-187.776,43.612   c-0.655-0.258-1.127,1.098-0.472,1.355c64.758,30.718,119.788-48.849,184.361-29.249c37.262,11.248,34.137,34.588,12.483,38.011   c-19.476-1.872-34.479-11.131-33.773-36.333c-1.96,10.565-0.055,21.971,4.713,32.236c-5.764-1.302-11.701-2.378-17.761-3.163   c-10.866-11.516-25.416-20.116-37.964-18.122c10.195,1.611,16.942,8.671,22.042,16.777c-30.786-1.216-63.225,5.799-90.085,27.977   c-0.631,0.533-0.269,1.699,0.408,1.275c26.449-15.043,57.116-23.855,96.091-17.317c1.647,3.392,3.153,6.597,4.652,9.29   c5.413,9.715,10.585,16.446,18.409,21.206c-9.167-2.09-18.196-5.125-26.874-9.302c-0.655-0.257-1.172,0.989-0.629,1.415   c45.267,33.546,96.844,21.753,139.754,14.484c5.173,1.997,9.858,4.525,14.097,7.525c-11.565,1.481-23.971,6.025-36.917,14.713   c-0.676,0.423-0.403,1.665,0.319,1.351c16.742-8.686,32.223-10.807,45.65-8.33c7.586,7.692,13.478,17.108,18.272,27.46   c-6.073-1.937-13.135-2.108-21.385,0.608c-0.609,0.146-0.63,1.414,0.023,1.378c11.388-0.411,20.589,5.036,27.166,12.305   c1.803,5.032,3.439,10.177,4.96,15.369c-7.772-10.851-14.32-20.651-29.364-21.558c13.612,7.138,17.072,21.172,20.391,34.598   c-2.95-2.423-6.339-5.77-10.189-10.219c-0.236-0.275-0.48-0.546-0.717-0.82c-0.098-0.179-0.185-0.362-0.283-0.541   c-4.49-8.122-10.758-15.486-18.939-19.197c-0.589-0.267-1.185-0.505-1.785-0.718c-21.767-17.437-48.221-27.127-77.75-14.146   c-0.632,0.239-0.539,1.633,0.16,1.411c25.672-7.406,45.901,0.384,63.081,13.787c-3.252,1.536-7.829,4.414-10.128,11.017   c-0.342,0.986-0.573,1.966-0.707,2.936c-9.146-3.785-18.52-6.969-28.169-9.347c-60.433-14.867-91.525-36.533-117.439-72.429   c-0.43-0.595-1.217,0.292-0.901,1.055c25.52,47.564,75.053,70.666,116.345,83.73c37.746,12.006,26.14,48.887-14.497,35.494   c-66.239-21.962-82.318-126.439-160.993-112.506c-0.677,0.13-0.722,1.492-0.066,1.454c60.258-0.663,82.786,56.27,116.047,100.615   c32.226,43.015,83.798,66.317,126.263,79.86c40.095,12.676,27.634,52.193-15.375,37.634   c-64.456-21.921-85.203-114.591-159.409-128.491c-0.7-0.073-1.037,1.316-0.36,1.481c65.771,19.107,87.15,111.832,147.596,140.228   c9.194,4.326,19.31,7.301,29.581,8.539c-0.766,0.43-1.192,0.647-1.192,0.647c46.57,5.879,97.528,18.244,97.528,18.244   c-12.508-20.793-19.169-41.259-21.736-60.816c4.89-11.959,7.787-26.75,7.948-44.767c0.013-1.698,0.008-3.42-0.002-5.144   c7.199-1.748-2.667-5.643,3.469-11.637c-7.027-1.095,2.75-2.276-3.862-5.067c-0.064-1.592-0.127-3.182-0.206-4.783   c0.043-0.129,0.09-0.253,0.132-0.382c12.39,1.554,7.652-10.641,12.484-18.669c-7.237-4.654,5.165-3.912,1.038-13.034   c2.032-3.873,4.104-7.579,6.189-11.081c4.579,3.897,8.605,1.466,10.145,5.391c-0.023-6.708-1.656-7.388-4.234-14.814   c3.489-5.296,6.884-10.02,9.968-14.057l8.321,1.558l18.799-23.523c1.846,2.789,3.689,5.611,5.563,8.46   C491.275,276.849,486.271,254.921,477.691,240.351z M295.64,239.373c-13.656,4.072-29.545,7.295-46.267,8.413   c1.152-0.473,2.253-0.974,3.271-1.504c-14.472,4.293-31.148-6.354-40.429-13.374c-5.952-4.501-9.215-9.122-12.485-14.107   c6.311,1.828,12.814,4.018,19.547,6.642c0.108,0.043,0.216,0.08,0.325,0.123c4.47,4.167,9.57,7.606,15.16,9.991   c14.068,5.999,27.894,4.281,41.59,2.261c6.246,0.312,12.645,0.338,19.286,0.085C296.36,237.881,296.339,239.15,295.64,239.373z    M363.861,228.556c-0.063-0.037-0.124-0.077-0.185-0.113c0.072,0.043,0.154,0.081,0.23,0.122   C363.89,228.561,363.875,228.559,363.861,228.556z M315.446,319.457c3.184-1.296,6.96-0.76,10.66,0.604   c7.124,7.352,13.766,15.246,20.15,22.761c0.45,0.502-0.18,1.624-0.676,1.307c-8.061-5.062-16.27-9.866-24.66-14.264   c0.215-1.875-0.507-3.842-2.62-5.471c0.268,1.256,0.166,2.777-0.309,3.952c-2.085-1.063-4.183-2.096-6.291-3.103   C311.78,322.856,313.237,320.357,315.446,319.457z M386.863,412.768c-39.792,19.16-111.122-15.507-148.482-45.946   c-0.543-0.426,0.043-1.655,0.676-1.306c35.974,21.084,76.243,7.923,115.645,3.372c4.35-0.488,8.299-0.551,11.862-0.284   c3.514,8.603,8.574,16.293,17.552,21.632c0.934,0.556,1.934,1.087,2.978,1.593c-6.61,7.315-24.34,11.121-54.033,0.917   c-0.656-0.256-1.083,0.914-0.609,1.324c11.316,9.217,28.342,16.78,54.388,17.32C387.424,411.336,387.494,412.53,386.863,412.768z    M394.086,245.308c-2.095-1.512-3.272-2.389-3.272-2.389c0.349,0.303,0.702,0.72,1.061,1.229   c-5.782-6.823-12.302-10.752-19.41-13.243c2.787,0.449,5.579,0.845,7.737,1.582c6.31,2.156,12.366,5.023,18.173,8.283   c10.09,5.662,19.41,12.657,28.317,20.05C411.654,254.28,399.011,247.864,394.086,245.308z"/>
</g>
</svg>